<?xml version="1.0" encoding="utf-8"?>
<svg xmlns="http://www.w3.org/2000/svg">
  <svg id="" viewBox="0 0 20 20"><path fill="#d1befe" d="M3 1a2 2 0 0 0-2 2v3a2 2 0 0 0 2 2h1v-.5c0-.17.012-.337.035-.5H3a1 1 0 0 1-1-1V3a1 1 0 0 1 1-1h3a1 1 0 0 1 1 1v1.035A3.53 3.53 0 0 1 7.5 4H8V3a2 2 0 0 0-2-2zm9 16v-1h.5c.17 0 .337-.012.5-.035V17a1 1 0 0 0 1 1h3a1 1 0 0 0 1-1v-3a1 1 0 0 0-1-1h-1.035c.023-.163.035-.33.035-.5V12h1a2 2 0 0 1 2 2v3a2 2 0 0 1-2 2h-3a2 2 0 0 1-2-2M5 7.5A2.5 2.5 0 0 1 7.5 5h5A2.5 2.5 0 0 1 15 7.5v5a2.5 2.5 0 0 1-2.5 2.5h-5A2.5 2.5 0 0 1 5 12.5zm2.277-1.484a1.5 1.5 0 0 0-1.26 1.261zM6 10.293L10.293 6H8.708L6 8.708zM11.707 6L6 11.707v.793c0 .232.052.45.146.647l7-7A1.495 1.495 0 0 0 12.5 6zM7.5 14h.793L14 8.294V7.5c0-.232-.053-.45-.146-.647l-7 7c.195.095.414.147.646.147m2.207 0h1.586L14 11.293V9.707zm3.017-.017a1.5 1.5 0 0 0 1.26-1.26z"/></svg>
  <svg id="position-to-front-20-filled" viewBox="0 0 20 20"><path fill="#d1befe" d="M1 3a2 2 0 0 1 2-2h3a2 2 0 0 1 2 2v1h-.5c-.17 0-.337.012-.5.035V3a1 1 0 0 0-1-1H3a1 1 0 0 0-1 1v3a1 1 0 0 0 1 1h1.035A3.53 3.53 0 0 0 4 7.5V8H3a2 2 0 0 1-2-2zm11 13v1a2 2 0 0 0 2 2h3a2 2 0 0 0 2-2v-3a2 2 0 0 0-2-2h-1v.5c0 .17-.012.337-.035.5H17a1 1 0 0 1 1 1v3a1 1 0 0 1-1 1h-3a1 1 0 0 1-1-1v-1.035c-.163.023-.33.035-.5.035zM5 7.5A2.5 2.5 0 0 1 7.5 5h5A2.5 2.5 0 0 1 15 7.5v5a2.5 2.5 0 0 1-2.5 2.5h-5A2.5 2.5 0 0 1 5 12.5z"/></svg>
</svg>